<svg width="100%" viewBox="0 0 1400 760" xmlns="http://www.w3.org/2000/svg">
  <title>Reference Architecture — Data Lakehouse Pattern Overlay</title>

  <rect width="1400" height="760" fill="#F4F2EC"/>

  <!-- Title -->
  <text x="700" y="28" text-anchor="middle" font-family="Georgia, serif" font-size="20" font-weight="400" fill="#15171A">Reference Architecture — Data Lakehouse Pattern</text>
  <text x="700" y="46" text-anchor="middle" font-family="Inter, sans-serif" font-size="12" fill="#5C6470">One copy, all workloads · Components highlighted in blue</text>

  <!-- ═══ COLUMN 1: Data Sources — ALL ACTIVE ═══ -->
  <rect x="15" y="55" width="150" height="480" rx="6" fill="#1E88E5" stroke="#42A5F5" stroke-width="0.5"/>
  <text x="90" y="78" text-anchor="middle" font-family="Inter, sans-serif" font-size="13" font-weight="700" fill="white">Data Sources</text>

  <!-- ALL active — lakehouse ingests structured + unstructured + streaming -->
  <rect x="25" y="92" width="130" height="30" rx="4" fill="#D0E2FF" stroke="#8DB4F0" stroke-width="1"/>
  <text x="90" y="112" text-anchor="middle" font-family="Inter, sans-serif" font-size="10" font-weight="600" fill="#002B80">Machine &amp; Sensor</text>
  <rect x="25" y="126" width="130" height="30" rx="4" fill="#D0E2FF" stroke="#8DB4F0" stroke-width="1"/>
  <text x="90" y="146" text-anchor="middle" font-family="Inter, sans-serif" font-size="10" font-weight="600" fill="#002B80">Image &amp; Video</text>
  <rect x="25" y="160" width="130" height="30" rx="4" fill="#D0E2FF" stroke="#8DB4F0" stroke-width="1"/>
  <text x="90" y="180" text-anchor="middle" font-family="Inter, sans-serif" font-size="10" font-weight="600" fill="#002B80">Content Services</text>
  <rect x="25" y="194" width="130" height="30" rx="4" fill="#D0E2FF" stroke="#8DB4F0" stroke-width="1"/>
  <text x="90" y="214" text-anchor="middle" font-family="Inter, sans-serif" font-size="10" font-weight="600" fill="#002B80">Streaming Data</text>
  <rect x="25" y="228" width="130" height="30" rx="4" fill="#D0E2FF" stroke="#8DB4F0" stroke-width="1"/>
  <text x="90" y="248" text-anchor="middle" font-family="Inter, sans-serif" font-size="10" font-weight="600" fill="#002B80">Internet Data Sets</text>
  <rect x="25" y="262" width="130" height="30" rx="4" fill="#D0E2FF" stroke="#8DB4F0" stroke-width="1"/>
  <text x="90" y="282" text-anchor="middle" font-family="Inter, sans-serif" font-size="10" font-weight="600" fill="#002B80">Third-Party Data</text>
  <rect x="25" y="296" width="130" height="30" rx="4" fill="#D0E2FF" stroke="#8DB4F0" stroke-width="1"/>
  <text x="90" y="316" text-anchor="middle" font-family="Inter, sans-serif" font-size="10" font-weight="600" fill="#002B80">Transactional Data</text>
  <rect x="25" y="330" width="130" height="30" rx="4" fill="#D0E2FF" stroke="#8DB4F0" stroke-width="1"/>
  <text x="90" y="350" text-anchor="middle" font-family="Inter, sans-serif" font-size="10" font-weight="600" fill="#002B80">Application Data</text>
  <rect x="25" y="364" width="130" height="30" rx="4" fill="#D0E2FF" stroke="#8DB4F0" stroke-width="1"/>
  <text x="90" y="384" text-anchor="middle" font-family="Inter, sans-serif" font-size="10" font-weight="600" fill="#002B80">System of Record</text>
  <rect x="25" y="398" width="130" height="30" rx="4" fill="#D0E2FF" stroke="#8DB4F0" stroke-width="1"/>
  <text x="90" y="418" text-anchor="middle" font-family="Inter, sans-serif" font-size="10" font-weight="600" fill="#002B80">PDFs, raw files</text>

  <!-- Vertical label -->
  <rect x="168" y="55" width="22" height="480" rx="3" fill="#E3F2FD" stroke="#90CAF9" stroke-width="0.5"/>
  <text x="179" y="320" text-anchor="middle" font-family="Inter, sans-serif" font-size="9" fill="#1565C0" transform="rotate(-90,179,320)">Data acquisition &amp; application access</text>

  <!-- ═══ COLUMN 2: Ingestion — ACTIVE ═══ -->
  <rect x="200" y="55" width="130" height="430" rx="6" fill="#1E88E5" stroke="#42A5F5" stroke-width="0.5"/>
  <text x="265" y="80" text-anchor="middle" font-family="Inter, sans-serif" font-size="12" font-weight="700" fill="white">Ingestion &amp;</text>
  <text x="265" y="95" text-anchor="middle" font-family="Inter, sans-serif" font-size="12" font-weight="700" fill="white">Integration</text>
  <rect x="210" y="115" width="110" height="24" rx="4" fill="#D0E2FF" stroke="#8DB4F0" stroke-width="0.5"/>
  <text x="265" y="131" text-anchor="middle" font-family="Inter, sans-serif" font-size="10" fill="#002B80">DataStage</text>
  <rect x="210" y="145" width="110" height="24" rx="4" fill="#D0E2FF" stroke="#8DB4F0" stroke-width="0.5"/>
  <text x="265" y="161" text-anchor="middle" font-family="Inter, sans-serif" font-size="10" fill="#002B80">CDC</text>
  <rect x="210" y="175" width="110" height="24" rx="4" fill="#D0E2FF" stroke="#8DB4F0" stroke-width="0.5"/>
  <text x="265" y="191" text-anchor="middle" font-family="Inter, sans-serif" font-size="10" fill="#002B80">Kafka</text>
  <rect x="210" y="205" width="110" height="24" rx="4" fill="#D0E2FF" stroke="#8DB4F0" stroke-width="0.5"/>
  <text x="265" y="221" text-anchor="middle" font-family="Inter, sans-serif" font-size="10" fill="#002B80">Data Replication</text>
  <rect x="210" y="235" width="110" height="24" rx="4" fill="#D0E2FF" stroke="#8DB4F0" stroke-width="0.5"/>
  <text x="265" y="251" text-anchor="middle" font-family="Inter, sans-serif" font-size="10" fill="#002B80">Streaming</text>

  <!-- ═══ COLUMN 3: Storage — ACTIVE (lakehouse = open table formats) ═══ -->
  <rect x="340" y="55" width="380" height="430" rx="6" fill="#1565C0" stroke="#42A5F5" stroke-width="0.5"/>
  <text x="530" y="80" text-anchor="middle" font-family="Inter, sans-serif" font-size="14" font-weight="700" fill="white">Analytical Data Management &amp; Storage</text>

  <!-- Open Table Formats sub-box -->
  <rect x="355" y="95" width="350" height="160" rx="4" fill="rgba(255,255,255,0.12)" stroke="rgba(255,255,255,0.3)" stroke-width="0.5"/>
  <text x="530" y="115" text-anchor="middle" font-family="Inter, sans-serif" font-size="11" font-weight="600" fill="rgba(255,255,255,0.9)">Open Table Formats</text>
  <rect x="420" y="125" width="220" height="24" rx="4" fill="#D0E2FF" stroke="#8DB4F0" stroke-width="0.5"/>
  <text x="530" y="141" text-anchor="middle" font-family="Inter, sans-serif" font-size="10" fill="#002B80">Apache Iceberg</text>
  <rect x="420" y="155" width="220" height="24" rx="4" fill="#D0E2FF" stroke="#8DB4F0" stroke-width="0.5"/>
  <text x="530" y="171" text-anchor="middle" font-family="Inter, sans-serif" font-size="10" fill="#002B80">Delta Lake</text>
  <rect x="420" y="185" width="220" height="24" rx="4" fill="#D0E2FF" stroke="#8DB4F0" stroke-width="0.5"/>
  <text x="530" y="201" text-anchor="middle" font-family="Inter, sans-serif" font-size="10" fill="#002B80">Milvus (vector store)</text>
  <rect x="420" y="215" width="220" height="24" rx="4" fill="#D0E2FF" stroke="#8DB4F0" stroke-width="0.5"/>
  <text x="530" y="231" text-anchor="middle" font-family="Inter, sans-serif" font-size="10" fill="#002B80">ACID, schema evolution, time travel</text>

  <!-- Object Storage sub-box -->
  <rect x="355" y="270" width="350" height="100" rx="4" fill="rgba(255,255,255,0.12)" stroke="rgba(255,255,255,0.3)" stroke-width="0.5"/>
  <text x="530" y="290" text-anchor="middle" font-family="Inter, sans-serif" font-size="11" font-weight="600" fill="rgba(255,255,255,0.9)">Object Storage</text>
  <rect x="420" y="300" width="220" height="24" rx="4" fill="#D0E2FF" stroke="#8DB4F0" stroke-width="0.5"/>
  <text x="530" y="316" text-anchor="middle" font-family="Inter, sans-serif" font-size="10" fill="#002B80">S3 / COS / MinIO</text>
  <rect x="420" y="330" width="220" height="24" rx="4" fill="#D0E2FF" stroke="#8DB4F0" stroke-width="0.5"/>
  <text x="530" y="346" text-anchor="middle" font-family="Inter, sans-serif" font-size="10" fill="#002B80">Parquet</text>

  <!-- Note -->
  <text x="530" y="420" text-anchor="middle" font-family="Inter, sans-serif" font-size="11" font-style="italic" fill="rgba(255,255,255,0.6)">One copy serves BI + ML + AI</text>
  <text x="530" y="438" text-anchor="middle" font-family="Inter, sans-serif" font-size="11" font-style="italic" fill="rgba(255,255,255,0.6)">No separate warehouse needed</text>

  <!-- ═══ COLUMN 4: Data Access — ACTIVE ═══ -->
  <rect x="730" y="55" width="120" height="430" rx="6" fill="#1E88E5" stroke="#42A5F5" stroke-width="0.5"/>
  <text x="790" y="80" text-anchor="middle" font-family="Inter, sans-serif" font-size="12" font-weight="700" fill="white">Data Access</text>
  <rect x="740" y="100" width="100" height="24" rx="4" fill="#D0E2FF" stroke="#8DB4F0" stroke-width="0.5"/>
  <text x="790" y="116" text-anchor="middle" font-family="Inter, sans-serif" font-size="10" fill="#002B80">Presto</text>
  <rect x="740" y="130" width="100" height="24" rx="4" fill="#D0E2FF" stroke="#8DB4F0" stroke-width="0.5"/>
  <text x="790" y="146" text-anchor="middle" font-family="Inter, sans-serif" font-size="10" fill="#002B80">Spark SQL</text>
  <rect x="740" y="160" width="100" height="24" rx="4" fill="#D0E2FF" stroke="#8DB4F0" stroke-width="0.5"/>
  <text x="790" y="176" text-anchor="middle" font-family="Inter, sans-serif" font-size="10" fill="#002B80">Db2 engine</text>

  <!-- ═══ Discovery — DIMMED ═══ -->
  <rect x="860" y="55" width="525" height="65" rx="6" fill="#B0BEC5" stroke="#CFD8DC" stroke-width="0.5" opacity="0.4"/>
  <text x="1122" y="95" text-anchor="middle" font-family="Inter, sans-serif" font-size="16" font-weight="700" fill="white" opacity="0.4">Discovery &amp; Exploration</text>

  <!-- ═══ Actionable Insight — ACTIVE ═══ -->
  <rect x="860" y="130" width="330" height="355" rx="6" fill="#1E88E5" stroke="#42A5F5" stroke-width="0.5"/>
  <text x="1025" y="155" text-anchor="middle" font-family="Inter, sans-serif" font-size="14" font-weight="700" fill="white">Actionable Insight</text>
  <rect x="910" y="170" width="230" height="24" rx="4" fill="#D0E2FF" stroke="#8DB4F0" stroke-width="0.5"/>
  <text x="1025" y="186" text-anchor="middle" font-family="Inter, sans-serif" font-size="10" fill="#002B80">Cognos BI</text>
  <rect x="910" y="200" width="230" height="24" rx="4" fill="#D0E2FF" stroke="#8DB4F0" stroke-width="0.5"/>
  <text x="1025" y="216" text-anchor="middle" font-family="Inter, sans-serif" font-size="10" fill="#002B80">watsonx.ai</text>
  <rect x="910" y="230" width="230" height="24" rx="4" fill="#D0E2FF" stroke="#8DB4F0" stroke-width="0.5"/>
  <text x="1025" y="246" text-anchor="middle" font-family="Inter, sans-serif" font-size="10" fill="#002B80">Watson Studio</text>
  <rect x="910" y="260" width="230" height="24" rx="4" fill="#D0E2FF" stroke="#8DB4F0" stroke-width="0.5"/>
  <text x="1025" y="276" text-anchor="middle" font-family="Inter, sans-serif" font-size="10" fill="#002B80">Agents / RAG</text>
  <rect x="910" y="290" width="230" height="24" rx="4" fill="#D0E2FF" stroke="#8DB4F0" stroke-width="0.5"/>
  <text x="1025" y="306" text-anchor="middle" font-family="Inter, sans-serif" font-size="10" fill="#002B80">Spark ML</text>

  <!-- ═══ Enhanced Applications — ACTIVE ═══ -->
  <rect x="1200" y="130" width="185" height="355" rx="6" fill="white" stroke="#E0E0E0" stroke-width="1"/>
  <text x="1292" y="156" text-anchor="middle" font-family="Inter, sans-serif" font-size="13" font-weight="700" fill="#15171A">Enhanced</text>
  <text x="1292" y="172" text-anchor="middle" font-family="Inter, sans-serif" font-size="13" font-weight="700" fill="#15171A">Applications</text>
  <rect x="1212" y="190" width="160" height="28" rx="4" fill="#FFECB3" stroke="#FFD54F" stroke-width="0.5"/>
  <text x="1292" y="209" text-anchor="middle" font-family="Inter, sans-serif" font-size="10" fill="#15171A">BI dashboards</text>
  <rect x="1212" y="224" width="160" height="28" rx="4" fill="#FFECB3" stroke="#FFD54F" stroke-width="0.5"/>
  <text x="1292" y="243" text-anchor="middle" font-family="Inter, sans-serif" font-size="10" fill="#15171A">ML pipelines</text>
  <rect x="1212" y="258" width="160" height="28" rx="4" fill="#FFECB3" stroke="#FFD54F" stroke-width="0.5"/>
  <text x="1292" y="277" text-anchor="middle" font-family="Inter, sans-serif" font-size="10" fill="#15171A">AI applications</text>
  <rect x="1212" y="292" width="160" height="28" rx="4" fill="#FFECB3" stroke="#FFD54F" stroke-width="0.5"/>
  <text x="1292" y="311" text-anchor="middle" font-family="Inter, sans-serif" font-size="10" fill="#15171A">Gen AI / RAG apps</text>

  <!-- ═══ Analytics In-Motion — ACTIVE ═══ -->
  <rect x="200" y="492" width="650" height="43" rx="4" fill="#1E88E5" stroke="#42A5F5" stroke-width="0.5"/>
  <text x="420" y="519" text-anchor="middle" font-family="Inter, sans-serif" font-size="14" font-weight="700" fill="white">Analytics In-Motion</text>
  <rect x="560" y="500" width="80" height="22" rx="3" fill="#D0E2FF" stroke="#8DB4F0" stroke-width="0.5"/>
  <text x="600" y="515" text-anchor="middle" font-family="Inter, sans-serif" font-size="9" fill="#002B80">Kafka</text>
  <rect x="650" y="500" width="110" height="22" rx="3" fill="#D0E2FF" stroke="#8DB4F0" stroke-width="0.5"/>
  <text x="705" y="515" text-anchor="middle" font-family="Inter, sans-serif" font-size="9" fill="#002B80">Spark Streaming</text>

  <!-- ═══ Governance — ACTIVE ═══ -->
  <rect x="15" y="548" width="1370" height="42" rx="4" fill="#1565C0" stroke="#1976D2" stroke-width="0.5"/>
  <text x="200" y="574" font-family="Inter, sans-serif" font-size="12" font-weight="700" fill="white">Information and Model Management &amp; Governance</text>
  <rect x="530" y="556" width="110" height="22" rx="3" fill="#D0E2FF" stroke="#8DB4F0" stroke-width="0.5"/>
  <text x="585" y="571" text-anchor="middle" font-family="Inter, sans-serif" font-size="9" fill="#002B80">Knowledge Catalog</text>
  <rect x="650" y="556" width="100" height="22" rx="3" fill="#D0E2FF" stroke="#8DB4F0" stroke-width="0.5"/>
  <text x="700" y="571" text-anchor="middle" font-family="Inter, sans-serif" font-size="9" fill="#002B80">Iceberg catalog</text>

  <!-- ═══ Security ═══ -->
  <rect x="15" y="596" width="1370" height="36" rx="4" fill="#64B5F6" stroke="#90CAF9" stroke-width="0.5"/>
  <text x="700" y="620" text-anchor="middle" font-family="Inter, sans-serif" font-size="13" font-weight="700" fill="white">Security</text>

  <!-- ═══ Platform ═══ -->
  <rect x="15" y="638" width="1370" height="36" rx="4" fill="#1E88E5" stroke="#42A5F5" stroke-width="0.5"/>
  <text x="700" y="662" text-anchor="middle" font-family="Inter, sans-serif" font-size="13" font-weight="700" fill="white">Platform</text>

  <!-- ═══ Infrastructure ═══ -->
  <rect x="15" y="680" width="1370" height="36" rx="4" fill="#0D47A1" stroke="#1565C0" stroke-width="0.5"/>
  <text x="700" y="704" text-anchor="middle" font-family="Inter, sans-serif" font-size="13" font-weight="700" fill="white">Infrastructure</text>

  <!-- Footer -->
  <text x="700" y="740" text-anchor="middle" font-family="Inter, sans-serif" font-size="9" fill="#8A93A0" letter-spacing="0.06em">LAKEHOUSE PATTERN · ONE COPY, ALL WORKLOADS · DIMMED BLOCKS = NOT USED BY THIS PATTERN</text>
</svg>
